<?xml version="1.0" encoding="UTF-8" standalone="no"?>
<!-- Created with Inkscape (http://www.inkscape.org/) -->

<svg
   xmlns:dc="http://purl.org/dc/elements/1.1/"
   xmlns:cc="http://creativecommons.org/ns#"
   xmlns:rdf="http://www.w3.org/1999/02/22-rdf-syntax-ns#"
   xmlns:svg="http://www.w3.org/2000/svg"
   xmlns="http://www.w3.org/2000/svg"
   xmlns:xlink="http://www.w3.org/1999/xlink"
   xmlns:sodipodi="http://sodipodi.sourceforge.net/DTD/sodipodi-0.dtd"
   xmlns:inkscape="http://www.inkscape.org/namespaces/inkscape"
   width="1000"
   height="1000"
   id="svg2"
   version="1.1"
   inkscape:version="0.48.3.1 r9886"
   sodipodi:docname="skull.svg">
  <defs
     id="defs4" />
  <sodipodi:namedview
     id="base"
     pagecolor="#ffffff"
     bordercolor="#666666"
     borderopacity="1.0"
     inkscape:pageopacity="0.0"
     inkscape:pageshadow="2"
     inkscape:zoom="0.716"
     inkscape:cx="500"
     inkscape:cy="500"
     inkscape:document-units="px"
     inkscape:current-layer="layer2"
     showgrid="false"
     inkscape:window-width="1407"
     inkscape:window-height="951"
     inkscape:window-x="499"
     inkscape:window-y="91"
     inkscape:window-maximized="0" />
  <metadata
     id="metadata7">
    <rdf:RDF>
      <cc:Work
         rdf:about="">
        <dc:format>image/svg+xml</dc:format>
        <dc:type
           rdf:resource="http://purl.org/dc/dcmitype/StillImage" />
        <dc:title />
      </cc:Work>
    </rdf:RDF>
  </metadata>
  <g
     inkscape:groupmode="layer"
     id="layer2"
     inkscape:label="Layer"
     style="display:inline">
    <rect
       style="fill:#fd6200;fill-opacity:1;fill-rule:evenodd;stroke:#2bff06;stroke-width:4;stroke-linecap:round;stroke-linejoin:round;stroke-miterlimit:4;stroke-opacity:0.48235294;stroke-dasharray:none;stroke-dashoffset:0"
       id="rect3777"
       width="1098.7313"
       height="1018.3362"
       x="-32.440056"
       y="-5.6417527" />
  </g>
  <g
     inkscape:groupmode="layer"
     id="layer3"
     inkscape:label="skull"
     style="display:none">
    <path
       id="path3934-0"
       transform="translate(-181.248,63.872847)"
       style="fill:#ffffff;fill-opacity:1;fill-rule:evenodd;stroke:none;display:inline"
       d="m 510.03989,147.97423 c -0.003,5.59729 -4.54235,10.13295 -10.13965,10.12995 -5.5973,-0.003 -10.13295,-4.54236 -10.12995,-10.13965 0.003,-5.5973 4.54235,-10.13296 10.13965,-10.12996 5.54031,0.003 10.05177,4.45375 10.12897,9.99352 m 56.56733,-30.02147 c -0.003,6.899 -5.59871,12.48876 -12.49771,12.48576 -6.89899,-0.003 -12.48875,-5.59872 -12.48575,-12.49771 0.003,-6.899 5.59871,-12.48876 12.49771,-12.48576 6.82875,0.003 12.38934,5.4895 12.48454,12.3176 m 55.62479,-25.745449 c -0.004,7.68001 -6.23253,13.903239 -13.91254,13.899239 -7.68002,-0.004 -13.90324,-6.232539 -13.89924,-13.912549 0.004,-7.68001 6.23253,-13.90294 13.91254,-13.89924 7.60183,0.004 13.79192,6.11096 13.89789,13.71204 m 217.78179,56.293209 c -0.002,5.07662 -4.11981,9.18964 -9.19643,9.18764 -5.07662,-0.002 -9.18963,-4.11981 -9.18763,-9.19643 0.002,-5.07662 4.11981,-9.18963 9.19643,-9.18763 5.02493,0.002 9.11664,4.03944 9.18674,9.06389 m -51.38021,-31.44876 c -0.003,6.899 -5.59871,12.48875 -12.49771,12.48575 -6.89899,-0.003 -12.48875,-5.59871 -12.48575,-12.49771 0.003,-6.899 5.59871,-12.48876 12.49771,-12.48576 6.82875,0.003 12.38934,5.4895 12.48454,12.3176 M 736.30529,92.823603 c -0.004,7.419677 -6.02127,13.432077 -13.44094,13.428077 -7.41967,-0.004 -13.43207,-6.02126 -13.42807,-13.440927 0.004,-7.41968 6.02126,-13.43158 13.44093,-13.42808 7.34413,0.004 13.32439,5.9038 13.42677,13.24723 M 681.86017,70.433882 c -0.004,8.72137 -7.07763,15.78808 -15.799,15.78388 -8.72137,-0.004 -15.78788,-7.07762 -15.78388,-15.79899 0.004,-8.72137 7.07763,-15.78808 15.799,-15.78388 8.63258,0.004 15.662,6.93956 15.78234,15.5713 m -1.884,98.039528 c -0.004,7.76085 -6.29813,14.04926 -14.05899,14.04554 -7.76085,-0.004 -14.04926,-6.29814 -14.04555,-14.05899 0.004,-7.76085 6.29815,-14.04926 14.059,-14.04555 7.68184,0.004 13.93709,6.17528 14.04418,13.85638 m -171.58322,-3.10383 35.35396,23.56931 14.61298,-47.61001 29.22594,29.22596 23.56932,-46.66725 28.28317,36.76813 25.45486,-57.50912 26.39763,56.56635 26.86901,-42.42477 23.09793,50.90972 29.22594,-28.28318 16.49852,49.49556 35.35397,-24.51208 c 0,0 -1.41416,14.14159 -8.01357,43.83892 -26.86901,-11.31328 -107.47606,-21.68377 -150.84359,-21.68377 -43.36753,0 -90.50616,4.24247 -148.95805,24.04069 z m 302.7017,59.7007 c 1.96246,0.84164 3.55808,2.50267 4.32025,4.49734 0.76217,1.99468 0.68076,4.29648 -0.22041,6.23234 -0.90117,1.93584 -2.61013,3.48 -4.62714,4.18092 -2.01701,0.7009 -4.31527,0.54926 -6.2227,-0.41059 -34.65561,-16.15198 -85.78634,-24.85143 -137.28125,-25.28126 -51.49491,-0.42982 -103.4999,7.35145 -140.03125,22.56251 -1.94987,0.92604 -4.28014,1.01622 -6.29576,0.24368 -2.01562,-0.77255 -3.68864,-2.39713 -4.52007,-4.38918 -0.83143,-1.99205 -0.80974,-4.32396 0.0586,-6.3002 0.86836,-1.97624 2.57133,-3.56939 4.60097,-4.30431 39.66086,-16.51412 93.17654,-24.25628 146.34376,-23.8125 53.16721,0.44379 105.82224,9.04597 143.875,26.78125 z m 67.27287,29.56853 c 3.40897,11.21919 -7.09187,39.67582 -20.46227,45.30318 6.51708,25.54808 -31.39132,95.81336 -87.38214,96.70102 -13.72975,-0.76622 -38.48032,-1.87848 -40.62091,-37.93688 -2.14058,-36.0584 44.4504,-83.32862 71.05374,-90.1149 16.55582,-3.17006 42.16883,-3.8709 54.78055,15.15425 17.07041,-4.71898 16.92942,-15.46451 22.63103,-29.10667 z M 476.0228,284.46397 c 12.61172,-19.02515 38.22473,-18.32432 54.78055,-15.15426 26.60335,6.78628 73.19433,54.05652 71.05375,90.11491 -2.14059,36.0584 -26.89116,37.17066 -40.62091,37.93688 -55.99083,-0.88767 -93.89923,-71.15294 -87.38215,-96.70103 -13.3704,-5.62736 -23.87124,-34.08399 -20.46227,-45.30318 5.70161,13.64216 5.56062,24.38768 22.63103,29.10668 z m 211.98995,104.16507 c -0.006,12.83751 -10.41798,23.23937 -23.25548,23.23323 -12.83751,-0.006 -23.23939,-10.41797 -23.23324,-23.25547 0.006,-12.83752 10.41798,-23.23939 23.25548,-23.23326 12.83317,0.006 23.23324,10.4112 23.23324,23.24437 l -23.24436,0 z M 665.18917,31.936116 C 553.85244,31.754358 515.56461,64.860564 484.79425,89.764066 415.64074,145.73236 441.70401,270.35673 446.92845,306.01483 c 5.22444,35.6581 35.37143,111.00945 83.78698,128.37164 22.5682,5.22345 37.48898,-0.0915 48.13745,6.54918 15.68431,15.9438 1.91013,41.58345 23.01263,42.9422 21.1025,1.35875 7.33782,-20.52425 23.93053,-16.35276 15.54528,3.99731 -0.33828,24.15397 17.8825,25.18344 18.22077,1.02946 6.1588,-27.51887 19.83015,-26.42586 13.67135,1.09301 -0.95687,25.25964 21.03148,25.35682 21.98834,0.0972 8.40544,-21.55936 18.80777,-24.97106 10.21603,-3.35059 20.12565,18.14844 31.52779,13.31557 11.40217,-4.83285 7.29053,-23.69024 11.14149,-30.148 3.85096,-6.45777 7.38715,-14.15116 28.77403,-13.88775 25.26712,0.31123 54.01706,-15.38457 67.73909,-35.5553 7.71514,-13.40428 30.07103,-40.13783 39.33239,-84.23985 9.26136,-44.10202 27.61693,-141.00496 -16.31616,-203.64756 C 821.61349,49.862929 776.5259,32.117898 665.18917,31.936116 z"
       inkscape:connector-curvature="0"
       sodipodi:nodetypes="csssccsssccsscccsssccsssccssccccscccccccccccccccccccccscccssscscssscsccccscccccscccccccscccsssccscssssssscsss" />
  </g>
  <g
     inkscape:groupmode="layer"
     id="layer8"
     inkscape:label="teddy_head"
     style="display:none">
    <ellipse
       style="fill:#ffffff;fill-opacity:1;fill-rule:evenodd;stroke:none;display:inline"
       id="path3002"
       cx="504.93652"
       cy="334.27362"
       rx="229.90126"
       ry="212.97603"
       transform="translate(-19.055098,-14.104372)"
       sodipodi:cx="504.93652"
       sodipodi:cy="334.27362"
       sodipodi:rx="229.90126"
       sodipodi:ry="212.97603" />
    <!--path
       sodipodi:type="arc"
       style="fill:#ffffff;fill-opacity:1;fill-rule:evenodd;stroke:none;display:inline"
       id="path3002"
       sodipodi:cx="504.93652"
       sodipodi:cy="334.27362"
       sodipodi:rx="229.90126"
       sodipodi:ry="212.97603"
       d="M 310.78769,220.20906 A 229.90126,212.97603 0 1 1 275.30117,324.0332"
       sodipodi:start="3.7067807"
       sodipodi:end="9.472879"
       sodipodi:open="true"
       transform="translate(-4.9507253,-14.104372)" /-->
    <path
       style="fill:#000000;fill-opacity:1;stroke:none"
       d="m 485.67179,332.86801 c 29.0885,-0.45274 59.66016,8.39699 59.66016,32.35058 0,23.9536 -39.70686,56.75711 -59.66016,57.32336 -20.83408,0.59123 -59.21248,-31.37364 -59.21248,-57.32336 0,-25.94973 30.12402,-31.89783 59.21248,-32.35058 z"
       id="path3816"
       inkscape:connector-curvature="0"
       sodipodi:nodetypes="zsssz" />
    <path
       sodipodi:type="arc"
       style="fill:#000000;fill-opacity:1;fill-rule:evenodd;stroke:none"
       id="path3818"
       sodipodi:cx="415.37378"
       sodipodi:cy="287.02399"
       sodipodi:rx="33.145275"
       sodipodi:ry="33.145275"
       d="m 448.51905,287.02399 a 33.145275,33.145275 0 1 1 -66.29055,0 33.145275,33.145275 0 1 1 66.29055,0 z"
       transform="translate(-29.972824,-7.0521987)" />
    <path
       transform="translate(171.01243,-7.0521956)"
       sodipodi:type="arc"
       style="fill:#000000;fill-opacity:1;fill-rule:evenodd;stroke:none"
       id="path3818-7"
       sodipodi:cx="415.37378"
       sodipodi:cy="287.02399"
       sodipodi:rx="33.145275"
       sodipodi:ry="33.145275"
       d="m 448.51905,287.02399 a 33.145275,33.145275 0 1 1 -66.29055,0 33.145275,33.145275 0 1 1 66.29055,0 z" />
  </g>
  <g
     inkscape:groupmode="layer"
     id="layer11"
     inkscape:label="kitty_head"
     style="display:inline">
    <path
       style="fill:#ffffff;fill-opacity:1;fill-rule:evenodd;stroke:none;display:inline"
       d="M 728.93181,357.89749 C 698.66374,451.15878 577.64641,546.5114 504.93652,547.24965 432.22663,547.9879 314.16229,437.13211 287.58544,363.80345 247.50585,253.21913 378.70381,153.04216 505.67477,153.04216 c 126.97096,0 259.5674,92.97671 223.25704,204.85533 z"
       id="path3002-8"
       inkscape:connector-curvature="0"
       sodipodi:nodetypes="szsss"
       transform="translate(-19.170787,-14.198002)" />
    <path
       style="fill:#ff95fa;fill-opacity:1;stroke:none"
       d="m 488.28902,373.21128 c 22.41928,-0.34894 45.98167,3.05787 45.98167,21.51954 0,18.46167 -30.60313,43.74421 -45.98167,44.18063 -16.05738,0.45568 -45.63663,-24.18049 -45.63663,-44.18063 0,-20.00015 23.21738,-21.1706 45.63663,-21.51954 z"
       id="path3816-2"
       inkscape:connector-curvature="0"
       sodipodi:nodetypes="zsssz" />
    <path
       sodipodi:type="arc"
       style="fill:#000000;fill-opacity:1;fill-rule:evenodd;stroke:none"
       id="path3818-70"
       sodipodi:cx="415.37378"
       sodipodi:cy="287.02399"
       sodipodi:rx="33.145275"
       sodipodi:ry="33.145275"
       d="m 448.51905,287.02399 a 33.145275,33.145275 0 1 1 -66.29055,0 33.145275,33.145275 0 1 1 66.29055,0 z"
       transform="translate(-30.088517,17.216279)" />
    <path
       transform="translate(170.89674,17.216279)"
       sodipodi:type="arc"
       style="fill:#080808;fill-opacity:1;fill-rule:evenodd;stroke:none"
       id="path3818-7-5"
       sodipodi:cx="415.37378"
       sodipodi:cy="287.02399"
       sodipodi:rx="33.145275"
       sodipodi:ry="33.145275"
       d="m 448.51905,287.02399 a 33.145275,33.145275 0 1 1 -66.29055,0 33.145275,33.145275 0 1 1 66.29055,0 z" />
  </g>
  <g
     inkscape:groupmode="layer"
     id="layer9"
     inkscape:label="teddy_ears"
     style="display:none">
    <path
       sodipodi:type="arc"
       style="fill:#ffffff;fill-opacity:1;fill-rule:evenodd;stroke:none"
       id="path3774"
       sodipodi:cx="-257.40479"
       sodipodi:cy="237.65868"
       sodipodi:rx="72.63752"
       sodipodi:ry="72.63752"
       d="m -184.76727,237.65868 a 72.63752,72.63752 0 1 1 -145.27503,0 72.63752,72.63752 0 1 1 145.27503,0 z"
       transform="translate(569.4608,-81.100143)" />
    <path
       sodipodi:type="arc"
       style="fill:#000000;fill-opacity:1;fill-rule:evenodd;stroke:none"
       id="path3776"
       sodipodi:cx="-444.99295"
       sodipodi:cy="236.24823"
       sodipodi:rx="41.607899"
       sodipodi:ry="41.607899"
       d="m -403.38505,236.24823 a 41.607899,41.607899 0 1 1 -83.2158,0 41.607899,41.607899 0 1 1 83.2158,0 z"
       transform="translate(757.05088,-79.689697)" />
    <path
       sodipodi:type="arc"
       style="fill:#ffffff;fill-opacity:1;fill-rule:evenodd;stroke:none"
       id="path3774-6"
       sodipodi:cx="-257.40479"
       sodipodi:cy="237.65868"
       sodipodi:rx="72.63752"
       sodipodi:ry="72.63752"
       d="m -184.76727,237.65868 a 72.63752,72.63752 0 1 1 -145.27503,0 72.63752,72.63752 0 1 1 145.27503,0 z"
       transform="translate(917.13105,-81.100143)" />
    <path
       sodipodi:type="arc"
       style="fill:#000000;fill-opacity:1;fill-rule:evenodd;stroke:none"
       id="path3776-1"
       sodipodi:cx="-444.99295"
       sodipodi:cy="236.24823"
       sodipodi:rx="41.607899"
       sodipodi:ry="41.607899"
       d="m -403.38505,236.24823 a 41.607899,41.607899 0 1 1 -83.2158,0 41.607899,41.607899 0 1 1 83.2158,0 z"
       transform="translate(1104.7211,-79.689697)" />
  </g>
  <g
     inkscape:groupmode="layer"
     id="layer10"
     inkscape:label="kitty_ears">
    <path
       style="fill:#fe96ff;fill-opacity:1;stroke:#ffffff;stroke-width:8;stroke-linecap:butt;stroke-linejoin:miter;stroke-miterlimit:4;stroke-opacity:1;stroke-dasharray:none"
       d="M 306.28162,219.49505 C 276.5884,181.80254 285.44196,126.77148 300.35923,99.057813 316.85455,109.2765 361.68649,133.68902 378.89699,169.4744"
       id="path3788"
       inkscape:connector-curvature="0"
       sodipodi:nodetypes="ccc" />
    <use
       x="0"
       y="0"
       xlink:href="#path3788"
       id="use3854"
       transform="matrix(-1,0,0,1,976.92309,0)"
       width="1000"
       height="1000" />
  </g>
  <g
     inkscape:label="Layer 1"
     inkscape:groupmode="layer"
     id="layer1"
     transform="translate(0,-52.362183)"
     style="display:inline" />
  <g
     inkscape:groupmode="layer"
     id="layer7"
     inkscape:label="diamond guide">
    <path
       style="display:inline;fill:none;stroke:#0808ff;stroke-width:4;stroke-linecap:butt;stroke-linejoin:miter;stroke-miterlimit:4;stroke-opacity:1;stroke-dasharray:none"
       d="M 490.83216,0 0,462.62341 480.9591,1000 1001.4104,459.80254 z"
       id="path3756"
       inkscape:connector-curvature="0" />
  </g>
  <g
     inkscape:groupmode="layer"
     id="layer5"
     inkscape:label="chainsaw_1_b">
    <path
       id="path3791"
       style="fill:#ffffff;fill-opacity:1;stroke:none"
       d="m 626.56636,765.50535 48.2294,30.76703 -23.28316,60.70252 -41.57706,-62.78137 z m -106.02151,14.96775 54.88172,4.15771 4.15771,18.70967 56.54481,92.30109 c 12.24103,14.08749 25.76292,15.18039 36.17204,-1.24731 l 37.83513,-111.01077 -97.29032,-66.93907 -122.23657,19.12544 z"
       inkscape:connector-curvature="0"
       sodipodi:nodetypes="cccccccccccccc" />
  </g>
  <g
     inkscape:groupmode="layer"
     id="layer6"
     inkscape:label="chainsaw_guides">
    <path
       style="fill:none;stroke:#000000;stroke-width:1px;stroke-linecap:butt;stroke-linejoin:miter;stroke-opacity:1"
       d="M 242.39429,516.87451 530.10757,689.41933"
       id="path3830"
       inkscape:connector-curvature="0" />
    <path
       style="fill:none;stroke:#000000;stroke-width:1px;stroke-linecap:butt;stroke-linejoin:miter;stroke-opacity:1"
       d="m 200.81722,668.21502 216.20074,46.56632"
       id="path3832"
       inkscape:connector-curvature="0" />
  </g>
  <g
     inkscape:groupmode="layer"
     id="layer4"
     inkscape:label="chainsaw_1_a">
    <path
       style="fill:#000000;fill-opacity:1;stroke:none"
       d="m 361.40625,676.9375 c -18.08404,11.28695 -35.4057,23.64591 -50.71875,38.5625 -3.91313,5.62253 -4.33521,13.53461 -1.125,19.5625 -23.79677,14.10434 -47.05052,29.10219 -70.6875,43.46875 15.83945,43.81893 31.64928,87.649 47.3125,131.53125 10.66301,4.50601 21.24562,9.20827 31.96875,13.5625 26.53759,-39.87612 55.92623,-77.91128 80.59375,-119 1.20223,-2.36786 -2.47102,-7.10489 1.75,-6.5625 9.80635,-1.93632 81.56156,-1.00117 91.35608,-2.99586 l -62.3656,-135.59151 -35.49731,-34.50896 -26.27196,5.82078 z M 331.4375,783.34375 337,794.15625 313.5,829 302.84375,801.84375 z"
       id="path3761-3"
       inkscape:connector-curvature="0"
       sodipodi:nodetypes="cccccccccccccccccc" />
    <path
       id="path3761"
       style="fill:#ffffff;fill-opacity:1;stroke:none"
       d="m 335.93472,766.08227 14.94188,28.85329 -40.18851,59.76752 -22.67044,-57.70658 z m -82.43797,17.51807 42.24946,117.4741 18.0333,7.72856 72.64846,-105.10841 0,-14.94188 95.3189,-19.57902 1.03048,-34.00566 -24.21616,-63.88943 -33.49042,-17.51806 c 0,0 -101.50175,55.64562 -106.13888,72.13322 l 6.18284,13.39617 z"
       inkscape:connector-curvature="0"
       sodipodi:nodetypes="ccccccccccccccccc" />
    <path
       sodipodi:type="arc"
       style="fill:none;stroke:#ffffff;stroke-width:8;stroke-miterlimit:4;stroke-opacity:1;stroke-dasharray:none;stroke-linecap:round"
       id="path3764"
       sodipodi:cx="485.09592"
       sodipodi:cy="698.07092"
       sodipodi:rx="18.806162"
       sodipodi:ry="18.806162"
       d="m 478.1343,680.60073 a 18.806162,18.806162 0 0 1 14.71915,34.60181"
       sodipodi:start="4.3331891"
       sodipodi:end="7.4287853"
       sodipodi:open="true"
       transform="translate(-2.0609492,-1.0304746)" />
    <circle
       cx="478.43127"
       cy="700.5694"
       r="9.55"
       style="fill:#ffffff;fill-opacity:1;stroke:none"
       transform="translate(3.7585434,-2.5056957)"
       id="circle17" />
    <!--path
       sodipodi:type="arc"
       style="fill:#f9ff08;fill-opacity:1;stroke:none"
       id="path3766"
       sodipodi:cx="478.43127"
       sodipodi:cy="700.5694"
       sodipodi:rx="9.5529652"
       sodipodi:ry="9.5529652"
       d="m 474.89498,691.69506 a 9.5529652,9.5529652 0 0 1 7.47689,17.57668"
       sodipodi:start="4.3331891"
       sodipodi:end="7.4287853"
       sodipodi:open="true"
       transform="translate(3.7585434,-2.5056957)" /-->
    <circle
       cx="770.80396"
       cy="588.85754"
       r="36.503269"
       style="fill:#ffffff;fill-opacity:1;stroke:none"
       transform="translate(-4.2313359,-2.8208618)"
       id="circle16"
       sodipodi:cx="770.80396"
       sodipodi:cy="588.85754"
       sodipodi:rx="36.503269"
       sodipodi:ry="36.503269" />
    <circle
       sodipodi:ry="57.122707"
       sodipodi:rx="57.122707"
       sodipodi:cy="586.03668"
       sodipodi:cx="769.39349"
       cx="769.39349"
       cy="586.03668"
       r="57.122707"
       style="fill:none;stroke:#ffffff;stroke-width:16;stroke-miterlimit:4;stroke-opacity:1;stroke-dasharray:none;display:inline"
       id="path3768"
       transform="translate(-2.8208745,0)" />
    <!--path
       sodipodi:type="arc"
       style="display:inline;fill:none;stroke:#ffc316;stroke-width:16;stroke-miterlimit:4;stroke-opacity:1;stroke-dasharray:none"
       id="path3768"
       sodipodi:cx="769.39349"
       sodipodi:cy="586.03668"
       sodipodi:rx="57.122707"
       sodipodi:ry="57.122707"
       d="m 784.30435,641.17895 a 57.122707,57.122707 0 1 1 8.65224,-3.10589"
       sodipodi:start="1.3067051"
       sodipodi:end="7.4287853"
       transform="translate(-2.8208745,0)" /-->
    <!--path
       sodipodi:type="arc"
       style="display:inline;fill:#f9ff08;fill-opacity:1;stroke:none"
       id="path3772"
       sodipodi:cx="770.80396"
       sodipodi:cy="588.85754"
       sodipodi:rx="36.503269"
       sodipodi:ry="36.503269"
       d="m 780.33248,624.09525 a 36.503269,36.503269 0 1 1 5.52906,-1.98477 l -15.05758,-33.25294 z"
       sodipodi:start="1.3067051"
       sodipodi:end="7.4287853"
       transform="translate(-4.758485,-4.02641)" /-->
    <circle
       cx="770.80396"
       cy="588.85754"
       r="36.503269"
       style="fill:#ffffff;fill-opacity:1;stroke:none"
       transform="translate(-574.56021,-4.6281902)"
       id="circle16-6"
       sodipodi:cx="770.80396"
       sodipodi:cy="588.85754"
       sodipodi:rx="36.503269"
       sodipodi:ry="36.503269"
       d="m 807.30722,588.85754 c 0,20.1602 -16.34307,36.50327 -36.50326,36.50327 -20.1602,0 -36.50327,-16.34307 -36.50327,-36.50327 0,-20.16019 16.34307,-36.50327 36.50327,-36.50327 20.16019,0 36.50326,16.34308 36.50326,36.50327 z" />
    <circle
       cx="769.39349"
       cy="586.03668"
       r="57.122707"
       style="fill:none;stroke:#ffffff;stroke-width:16;stroke-miterlimit:4;stroke-opacity:1;stroke-dasharray:none;display:inline"
       id="path3768-4"
       transform="translate(-573.14974,-1.8073284)"
       sodipodi:cx="769.39349"
       sodipodi:cy="586.03668"
       sodipodi:rx="57.122707"
       sodipodi:ry="57.122707"
       d="m 826.5162,586.03668 c 0,31.548 -25.57471,57.12271 -57.12271,57.12271 -31.548,0 -57.1227,-25.57471 -57.1227,-57.12271 0,-31.548 25.5747,-57.12271 57.1227,-57.12271 31.548,0 57.12271,25.57471 57.12271,57.12271 z" />
  </g>
</svg>
